<svg width="25" height="24" viewBox="0 0 25 24" fill="none" xmlns="http://www.w3.org/2000/svg">
<path d="M12.4773 8C13.6023 8 14.5228 7.1 14.5228 6C14.5228 4.9 13.6023 4 12.4773 4C11.3523 4 10.4319 4.9 10.4319 6C10.4319 7.1 11.3523 8 12.4773 8ZM12.4773 10C11.3523 10 10.4319 10.9 10.4319 12C10.4319 13.1 11.3523 14 12.4773 14C13.6023 14 14.5228 13.1 14.5228 12C14.5228 10.9 13.6023 10 12.4773 10ZM12.4773 16C11.3523 16 10.4319 16.9 10.4319 18C10.4319 19.1 11.3523 20 12.4773 20C13.6023 20 14.5228 19.1 14.5228 18C14.5228 16.9 13.6023 16 12.4773 16Z" fill="white"/>
</svg>
